<svg
   xmlns="http://www.w3.org/2000/svg"
   viewBox="0 0 128 128">
  <path
     id="rect855"
     d="M 28 21.191406 C 16.92 21.191406 8 30.111406 8 41.191406 L 8 108 C 8 119.08 16.92 128 28 128 L 100 128 C 111.08 128 120 119.08 120 108 L 120 41.191406 C 120 30.111406 111.08 21.191406 100 21.191406 L 74.277344 21.191406 A 10.294362 10.294362 0 0 1 74.294922 21.705078 A 10.294362 10.294362 0 0 1 64 32 A 10.294362 10.294362 0 0 1 53.705078 21.705078 A 10.294362 10.294362 0 0 1 53.730469 21.191406 L 28 21.191406 z "
     style="opacity:0.5;fill:#428bca;fill-opacity:1;fill-rule:nonzero;stroke:none;stroke-width:4;stroke-linecap:round;stroke-linejoin:bevel;stroke-miterlimit:4;stroke-dasharray:none;stroke-dashoffset:0;stroke-opacity:1;paint-order:markers stroke fill" />
  <path
     id="path833"
     class="fa-primary"
     d="m 85.333332,21.333333 a 21.333333,21.333333 0 0 0 -42.666666,0 21.333333,21.333333 0 0 0 -21.333333,21.333333 H 106.66667 A 21.333333,21.333333 0 0 0 85.333332,21.333333 Z m -21.333333,8 a 7.9999999,7.9999999 0 1 1 8,-8 7.9799999,7.9799999 0 0 1 -8,8 z"
     style="fill:#428bca;stroke-width:1;fill-opacity:1" />
  <path
     d="m 96,72 c 0,1.1 -0.9,2 -2,2 H 34 c -1.1,0 -2,-0.9 -2,-2 v -4 c 0,-1.1 0.9,-2 2,-2 h 60 c 1.1,0 2,0.9 2,2 z M 72,96 c 0,1.099998 -0.9,1.999998 -2,1.999998 H 34 c -1.1,0 -2,-0.9 -2,-1.999998 v -4 c 0,-1.1 0.9,-2 2,-2 h 36 c 1.1,0 2,0.9 2,2 z"
     style="fill:#ffffff;stroke-width:1"
     id="path859" />
</svg>
