<svg xmlns="http://www.w3.org/2000/svg" viewBox="0 0 128 128"><path d="m101.46 76.41c1.25 1.25 1.25 3.28 0 4.53l-4.52 4.52c-1.25 1.25-3.28 1.25-4.53 0L80 73.05 67.59 85.46c-1.25 1.25-3.28 1.25-4.53 0l-4.52-4.52c-1.25-1.25-1.25-3.28 0-4.53L70.95 64 58.54 51.59c-1.25-1.25-1.25-3.28 0-4.53l4.52-4.52c1.25-1.25 3.28-1.25 4.53 0L80 54.95 92.41 42.54c1.25-1.25 3.28-1.25 4.53 0l4.52 4.52c1.25 1.25 1.25 3.28 0 4.53L89.05 64ZM114.67 24H42.76c-3.54 0-6.93 1.4-9.43 3.91L1.95 59.29c-2.6 2.6-2.6 6.83 0 9.43L33.33 100.09C35.83 102.59 39.23 104 42.76 104H114.67C122.03 104 128 98.03 128 90.67V37.33C128 29.97 122.03 24 114.67 24Z" fill="currentColor"/></svg>
