<?xml version="1.0" encoding="UTF-8" standalone="no"?>
<svg
   xmlns:dc="http://purl.org/dc/elements/1.1/"
   xmlns:cc="http://creativecommons.org/ns#"
   xmlns:rdf="http://www.w3.org/1999/02/22-rdf-syntax-ns#"
   xmlns:svg="http://www.w3.org/2000/svg"
   xmlns="http://www.w3.org/2000/svg"
   xmlns:sodipodi="http://sodipodi.sourceforge.net/DTD/sodipodi-0.dtd"
   xmlns:inkscape="http://www.inkscape.org/namespaces/inkscape"
   aria-hidden="true"
   focusable="false"
   data-prefix="fas"
   data-icon="backspace"
   role="img"
   viewBox="0 0 128 128"
   class="svg-inline--fa fa-backspace fa-w-20 fa-2x"
   version="1.1"
   id="svg4"
   sodipodi:docname="backspace.svg"
   width="128"
   height="128"
   inkscape:version="0.92.4 5da689c313, 2019-01-14">
  <metadata
     id="metadata10">
    <rdf:RDF>
      <cc:Work
         rdf:about="">
        <dc:format>image/svg+xml</dc:format>
        <dc:type
           rdf:resource="http://purl.org/dc/dcmitype/StillImage" />
        <dc:title></dc:title>
      </cc:Work>
    </rdf:RDF>
  </metadata>
  <defs
     id="defs8" />
  <sodipodi:namedview
     pagecolor="#ffffff"
     bordercolor="#666666"
     borderopacity="1"
     objecttolerance="10"
     gridtolerance="10"
     guidetolerance="10"
     inkscape:pageopacity="0"
     inkscape:pageshadow="2"
     inkscape:window-width="2560"
     inkscape:window-height="1015"
     id="namedview6"
     showgrid="true"
     showguides="true"
     inkscape:guide-bbox="true"
     inkscape:snap-bbox="true"
     inkscape:bbox-paths="true"
     inkscape:bbox-nodes="true"
     inkscape:snap-bbox-edge-midpoints="true"
     inkscape:object-paths="true"
     inkscape:snap-intersection-paths="true"
     inkscape:snap-smooth-nodes="true"
     inkscape:snap-midpoints="true"
     inkscape:snap-bbox-midpoints="true"
     inkscape:zoom="3.6875"
     inkscape:cx="117.15007"
     inkscape:cy="62.872016"
     inkscape:window-x="0"
     inkscape:window-y="0"
     inkscape:window-maximized="1"
     inkscape:current-layer="svg4">
    <inkscape:grid
       type="xygrid"
       id="grid817"
       spacingx="8"
       spacingy="8" />
  </sodipodi:namedview>
  <path
     id="path2"
     style="fill:#000000;stroke-width:1"
     d="m 101.46183,76.41191 c 1.24999,1.24999 1.24999,3.27597 0,4.52596 l -4.52396,4.52397 c -1.249991,1.24999 -3.275975,1.24999 -4.525965,0 L 80.000001,73.04993 67.588098,85.46184 c -1.24999,1.24999 -3.275974,1.24999 -4.525964,0 l -4.523965,-4.52397 c -1.24999,-1.24999 -1.24999,-3.27597 0,-4.52596 L 70.950072,64 58.538169,51.5881 c -1.24999,-1.24999 -1.24999,-3.27597 0,-4.52596 l 4.523965,-4.523969 c 1.24999,-1.249991 3.275974,-1.249991 4.525964,0 L 80.000001,54.95007 92.411905,42.538171 c 1.24999,-1.249991 3.275974,-1.249991 4.525965,0 l 4.52396,4.523969 c 1.24999,1.24999 1.24999,3.27597 0,4.52596 L 89.049931,64 Z M 114.66667,24 H 42.763547 c -3.536874,-7.06e-4 -6.928971,1.404549 -9.429166,3.906249 L 1.9531252,59.285421 c -2.60416695,2.604167 -2.60416695,6.825002 0,9.427085 L 33.334381,100.09375 C 35.83438,102.59375 39.226048,104 42.761464,104 H 114.66667 C 122.03125,104 128,98.031259 128,90.666669 V 37.333334 C 128,29.96875 122.03125,24 114.66667,24 Z" />
</svg>
