<?xml version="1.0" encoding="UTF-8" standalone="no"?>
<svg
   xmlns:dc="http://purl.org/dc/elements/1.1/"
   xmlns:cc="http://creativecommons.org/ns#"
   xmlns:rdf="http://www.w3.org/1999/02/22-rdf-syntax-ns#"
   xmlns:svg="http://www.w3.org/2000/svg"
   xmlns="http://www.w3.org/2000/svg"
   xmlns:sodipodi="http://sodipodi.sourceforge.net/DTD/sodipodi-0.dtd"
   xmlns:inkscape="http://www.inkscape.org/namespaces/inkscape"
   aria-hidden="true"
   focusable="false"
   data-prefix="fas"
   data-icon="backspace"
   role="img"
   viewBox="0 0 128 128"
   class="svg-inline--fa fa-backspace fa-w-20 fa-2x"
   version="1.1"
   id="svg4"
   sodipodi:docname="favicon.svg"
   width="128"
   height="128"
   inkscape:version="0.92.4 5da689c313, 2019-01-14">
  <metadata
     id="metadata10">
    <rdf:RDF>
      <cc:Work
         rdf:about="">
        <dc:format>image/svg+xml</dc:format>
        <dc:type
           rdf:resource="http://purl.org/dc/dcmitype/StillImage" />
        <dc:title></dc:title>
      </cc:Work>
    </rdf:RDF>
  </metadata>
  <defs
     id="defs8" />
  <sodipodi:namedview
     pagecolor="#ffffff"
     bordercolor="#666666"
     borderopacity="1"
     objecttolerance="10"
     gridtolerance="10"
     guidetolerance="10"
     inkscape:pageopacity="0"
     inkscape:pageshadow="2"
     inkscape:window-width="2560"
     inkscape:window-height="1015"
     id="namedview6"
     showgrid="true"
     showguides="true"
     inkscape:guide-bbox="true"
     inkscape:snap-bbox="true"
     inkscape:bbox-paths="true"
     inkscape:bbox-nodes="true"
     inkscape:snap-bbox-edge-midpoints="true"
     inkscape:object-paths="true"
     inkscape:snap-intersection-paths="true"
     inkscape:snap-smooth-nodes="true"
     inkscape:snap-midpoints="true"
     inkscape:snap-bbox-midpoints="true"
     inkscape:zoom="1.84375"
     inkscape:cx="-23.072503"
     inkscape:cy="-51.174087"
     inkscape:window-x="0"
     inkscape:window-y="0"
     inkscape:window-maximized="1"
     inkscape:current-layer="svg4">
    <inkscape:grid
       type="xygrid"
       id="grid817"
       spacingx="8"
       spacingy="8" />
  </sodipodi:namedview>
  <path
     style="opacity:1;fill:#608dc8;fill-opacity:1;fill-rule:nonzero;stroke:none;stroke-width:4;stroke-linecap:round;stroke-linejoin:bevel;stroke-miterlimit:4;stroke-dasharray:none;stroke-dashoffset:0;stroke-opacity:1;paint-order:markers stroke fill"
     d="M 28 21.191406 C 16.92 21.191406 8 30.111406 8 41.191406 L 8 108 C 8 119.08 16.92 128 28 128 L 100 128 C 111.08 128 120 119.08 120 108 L 120 41.191406 C 120 30.111406 111.08 21.191406 100 21.191406 L 74.277344 21.191406 A 10.294362 10.294362 0 0 1 74.294922 21.705078 A 10.294362 10.294362 0 0 1 64 32 A 10.294362 10.294362 0 0 1 53.705078 21.705078 A 10.294362 10.294362 0 0 1 53.730469 21.191406 L 28 21.191406 z "
     id="rect855" />
  <path
     style="fill:#091d66;stroke-width:1;fill-opacity:1"
     inkscape:connector-curvature="0"
     d="m 85.333332,21.333333 a 21.333333,21.333333 0 0 0 -42.666666,0 21.333333,21.333333 0 0 0 -21.333333,21.333333 H 106.66667 A 21.333333,21.333333 0 0 0 85.333332,21.333333 Z m -21.333333,8 a 7.9999999,7.9999999 0 1 1 8,-8 7.9799999,7.9799999 0 0 1 -8,8 z"
     class="fa-primary"
     id="path833" />
  <path
     id="path859"
     style="fill:#ffffff;stroke-width:1"
     d="m 96,72 c 0,1.1 -0.9,2 -2,2 H 34 c -1.1,0 -2,-0.9 -2,-2 v -4 c 0,-1.1 0.9,-2 2,-2 h 60 c 1.1,0 2,0.9 2,2 z M 72,96 c 0,1.099998 -0.9,1.999998 -2,1.999998 H 34 c -1.1,0 -2,-0.9 -2,-1.999998 v -4 c 0,-1.1 0.9,-2 2,-2 h 36 c 1.1,0 2,0.9 2,2 z"
     inkscape:connector-curvature="0" />
</svg>
