<svg xmlns="http://www.w3.org/2000/svg" xmlns:xlink="http://www.w3.org/1999/xlink">
  <symbol id="search" viewBox="0 0 128 128">
    <path d="m52 83.99c-17.68 0-32-14.3-32-32 0-17.67 14.3-32 32-32 17.68 0 32 14.3 32 32 0 17.67-14.3 32-32 32zM126.26 110.66 101.33 85.74c-1.13-1.12-2.65-1.75-4.25-1.75H93.01C99.91 75.17 104.01 64.07 104.01 51.99 104.01 23.27 80.73 0 52 0 23.28 0 0 23.27 0 51.99c0 28.72 23.28 51.99 52 51.99 12.08 0 23.18-4.1 32-11v4.07c0 1.6 0.63 3.12 1.75 4.25l24.93 24.92c2.35 2.35 6.15 2.35 8.48 0l7.08-7.07c2.35-2.35 2.35-6.15 0.03-8.5z" fill="currentColor"/>
  </symbol>

  <symbol id="backspace" viewBox="0 0 128 128">
    <path d="m101.46 76.41c1.25 1.25 1.25 3.28 0 4.53l-4.52 4.52c-1.25 1.25-3.28 1.25-4.53 0L80 73.05 67.59 85.46c-1.25 1.25-3.28 1.25-4.53 0l-4.52-4.52c-1.25-1.25-1.25-3.28 0-4.53L70.95 64 58.54 51.59c-1.25-1.25-1.25-3.28 0-4.53l4.52-4.52c1.25-1.25 3.28-1.25 4.53 0L80 54.95 92.41 42.54c1.25-1.25 3.28-1.25 4.53 0l4.52 4.52c1.25 1.25 1.25 3.28 0 4.53L89.05 64ZM114.67 24H42.76c-3.54 0-6.93 1.4-9.43 3.91L1.95 59.29c-2.6 2.6-2.6 6.83 0 9.43L33.33 100.09C35.83 102.59 39.23 104 42.76 104H114.67C122.03 104 128 98.03 128 90.67V37.33C128 29.97 122.03 24 114.67 24Z" fill="currentColor"/>
  </symbol>
</svg>
