<svg xmlns="http://www.w3.org/2000/svg" xmlns:xlink="http://www.w3.org/1999/xlink">
  <symbol id="search" viewBox="0 0 128 128">
    <path d="m52 83.99c-17.68 0-32-14.3-32-32 0-17.67 14.3-32 32-32 17.68 0 32 14.3 32 32 0 17.67-14.3 32-32 32zM126.26 110.66 101.33 85.74c-1.13-1.12-2.65-1.75-4.25-1.75H93.01C99.91 75.17 104.01 64.07 104.01 51.99 104.01 23.27 80.73 0 52 0 23.28 0 0 23.27 0 51.99c0 28.72 23.28 51.99 52 51.99 12.08 0 23.18-4.1 32-11v4.07c0 1.6 0.63 3.12 1.75 4.25l24.93 24.92c2.35 2.35 6.15 2.35 8.48 0l7.08-7.07c2.35-2.35 2.35-6.15 0.03-8.5z" fill="currentColor"/>
  </symbol>

  <symbol id="backspace" viewBox="0 0 128 128">
    <path d="m101.46 76.41c1.25 1.25 1.25 3.28 0 4.53l-4.52 4.52c-1.25 1.25-3.28 1.25-4.53 0L80 73.05 67.59 85.46c-1.25 1.25-3.28 1.25-4.53 0l-4.52-4.52c-1.25-1.25-1.25-3.28 0-4.53L70.95 64 58.54 51.59c-1.25-1.25-1.25-3.28 0-4.53l4.52-4.52c1.25-1.25 3.28-1.25 4.53 0L80 54.95 92.41 42.54c1.25-1.25 3.28-1.25 4.53 0l4.52 4.52c1.25 1.25 1.25 3.28 0 4.53L89.05 64ZM114.67 24H42.76c-3.54 0-6.93 1.4-9.43 3.91L1.95 59.29c-2.6 2.6-2.6 6.83 0 9.43L33.33 100.09C35.83 102.59 39.23 104 42.76 104H114.67C122.03 104 128 98.03 128 90.67V37.33C128 29.97 122.03 24 114.67 24Z" fill="currentColor"/>
  </symbol>
  
  <symbol id="note" viewBox="0 0 128 128">
    <path d="m85.33 21.33a21.33 21.33 0 0 0-42.67 0 21.33 21.33 0 0 0-21.33 21.33H106.67A21.33 21.33 0 0 0 85.33 21.33Zm-21.33 8a8 8 0 1 1 8-8 7.98 7.98 0 0 1-8 8z" fill="currentColor"/>
    <path d="m96 72c-0.6 3.12-4.38 1.67-6.64 2C70.9 74 52.45 74 34 74 31.01 73.27 31.83 68.76 32.59 66.59 35.18 65.41 38.29 66.26 41.12 66 58.75 66 76.37 66 94 66c3.03 0.34 1.7 3.97 2 6zM72 96c-0.6 3.12-4.38 1.67-6.64 2-10.45 0-20.9 0-31.36 0C31.01 97.27 31.83 92.76 32.59 90.59 35.18 89.41 38.29 90.26 41.12 90 50.75 90 60.37 90 70 90c3.03 0.34 1.7 3.97 2 6zM28 21.19C16.82 20.85 7.07 31.32 8 42.43 8.02 64.63 7.97 86.83 8.03 109.03 8.27 119.97 18.72 129 29.55 128c23.83-0.02 47.66 0.03 71.48-0.03 10.94-0.24 19.97-10.69 18.97-21.52-0.02-22.1 0.03-44.2-0.03-66.29-0.24-10.94-10.69-19.97-21.52-18.97-8.06 0-16.12 0-24.18 0 0.76 7.7-8.61 13.57-15.21 9.55-4.9-1.03-3.91-8.42-6.57-9.55-8.16 0-16.33 0-24.49 0z" opacity="0.5" fill="currentColor"/>
  </symbol>
  
  <symbol id="tags" viewBox="0 0 128 128">
    <path d="M125.19 74.76 84.36 115.59c-3.75 3.75-9.83 3.75-13.58 0l-0.07-0.07 34.81-34.81c3.4-3.4 5.27-7.92 5.27-12.73 0-4.81-1.87-9.33-5.27-12.73L66.28 16h9.74a9.6 9.6 0 0 1 6.79 2.81l42.38 42.38c3.75 3.75 3.75 9.83 0 13.58zM22.4 48c-5.3 0-9.6-4.3-9.6-9.6 0-5.3 4.3-9.6 9.6-9.6 5.3 0 9.6 4.3 9.6 9.6 0 5.3-4.3 9.6-9.6 9.6zM99.59 61.19 57.21 18.81A9.6 9.6 0 0 0 50.42 16H9.6C4.3 16 0 20.3 0 25.6v40.82a9.6 9.6 0 0 0 2.81 6.79l42.38 42.38c3.75 3.75 9.83 3.75 13.58 0L99.59 74.76c3.75-3.75 3.75-9.83 0-13.58z" fill="currentColor"/>
  </symbol>
</svg>
