<?xml version="1.0" encoding="UTF-8" standalone="no"?>
<svg
   xmlns:dc="http://purl.org/dc/elements/1.1/"
   xmlns:cc="http://creativecommons.org/ns#"
   xmlns:rdf="http://www.w3.org/1999/02/22-rdf-syntax-ns#"
   xmlns:svg="http://www.w3.org/2000/svg"
   xmlns="http://www.w3.org/2000/svg"
   xmlns:sodipodi="http://sodipodi.sourceforge.net/DTD/sodipodi-0.dtd"
   xmlns:inkscape="http://www.inkscape.org/namespaces/inkscape"
   aria-hidden="true"
   focusable="false"
   data-prefix="fas"
   data-icon="backspace"
   role="img"
   viewBox="0 0 128 128"
   class="svg-inline--fa fa-backspace fa-w-20 fa-2x"
   version="1.1"
   id="svg4"
   sodipodi:docname="note.svg"
   width="128"
   height="128"
   inkscape:version="0.92.4 5da689c313, 2019-01-14">
  <metadata
     id="metadata10">
    <rdf:RDF>
      <cc:Work
         rdf:about="">
        <dc:format>image/svg+xml</dc:format>
        <dc:type
           rdf:resource="http://purl.org/dc/dcmitype/StillImage" />
        <dc:title></dc:title>
      </cc:Work>
    </rdf:RDF>
  </metadata>
  <defs
     id="defs8" />
  <sodipodi:namedview
     pagecolor="#ffffff"
     bordercolor="#666666"
     borderopacity="1"
     objecttolerance="10"
     gridtolerance="10"
     guidetolerance="10"
     inkscape:pageopacity="0"
     inkscape:pageshadow="2"
     inkscape:window-width="2560"
     inkscape:window-height="1015"
     id="namedview6"
     showgrid="true"
     showguides="true"
     inkscape:guide-bbox="true"
     inkscape:snap-bbox="true"
     inkscape:bbox-paths="true"
     inkscape:bbox-nodes="true"
     inkscape:snap-bbox-edge-midpoints="true"
     inkscape:object-paths="true"
     inkscape:snap-intersection-paths="true"
     inkscape:snap-smooth-nodes="true"
     inkscape:snap-midpoints="true"
     inkscape:snap-bbox-midpoints="true"
     inkscape:zoom="3.6875"
     inkscape:cx="8.1331204"
     inkscape:cy="62.872016"
     inkscape:window-x="0"
     inkscape:window-y="0"
     inkscape:window-maximized="1"
     inkscape:current-layer="svg4">
    <inkscape:grid
       type="xygrid"
       id="grid817"
       spacingx="8"
       spacingy="8" />
  </sodipodi:namedview>
  <path
     inkscape:connector-curvature="0"
     id="path833"
     class="fa-primary"
     d="m 85.333332,21.333333 a 21.333333,21.333333 0 0 0 -42.666666,0 21.333333,21.333333 0 0 0 -21.333333,21.333333 H 106.66667 A 21.333333,21.333333 0 0 0 85.333332,21.333333 Z m -21.333333,8 a 7.9999999,7.9999999 0 1 1 8,-8 7.9799999,7.9799999 0 0 1 -8,8 z"
     style="fill-opacity:1" />
  <path
     id="path859"
     d="m 96,72 c -0.597956,3.117528 -4.384565,1.66538 -6.642938,2 C 70.904708,74 52.452354,74 34,74 31.01347,73.27426 31.829203,68.759815 32.5875,66.5875 35.179256,65.407954 38.294485,66.257615 41.119171,66 58.746114,66 76.373057,66 94,66 c 3.030949,0.341233 1.703502,3.974002 2,6 z M 72,96 c -0.597958,3.117526 -4.384566,1.665378 -6.642938,1.999998 -10.452354,0 -20.904708,0 -31.357062,0 C 31.013469,97.274259 31.829203,92.759815 32.5875,90.5875 35.179256,89.407954 38.294485,90.257615 41.119171,90 50.746114,90 60.373057,90 70,90 c 3.030949,0.341233 1.703502,3.974002 2,6 z M 28,21.191406 C 16.81602,20.848739 7.067163,31.318428 8,42.429523 8.017179,64.630313 7.9655724,86.831967 8.0259265,109.03222 8.2664689,119.96903 18.719089,129.00383 29.547646,128 c 23.828082,-0.0172 47.65703,0.0345 71.484574,-0.0259 10.93681,-0.24054 19.97161,-10.69316 18.96778,-21.52172 -0.0172,-22.09761 0.0344,-44.196088 -0.0259,-66.29316 -0.24054,-10.936813 -10.69316,-19.971611 -21.521716,-18.967784 -8.058337,0 -16.116673,0 -24.17501,0 0.761754,7.703624 -8.609171,13.569694 -15.212793,9.548653 -4.895231,-1.030258 -3.909488,-8.423474 -6.5722,-9.548653 -8.164117,0 -16.328234,0 -24.492351,0 z"
     inkscape:connector-curvature="0"
     style="opacity:0.5" />
</svg>
