<svg xmlns="http://www.w3.org/2000/svg" viewBox="0 0 128 128">
  <path d="m85.33 21.33a21.33 21.33 0 0 0-42.67 0 21.33 21.33 0 0 0-21.33 21.33H106.67A21.33 21.33 0 0 0 85.33 21.33Zm-21.33 8a8 8 0 1 1 8-8 7.98 7.98 0 0 1-8 8z"/>
  <path d="m96 72c-0.6 3.12-4.38 1.67-6.64 2C70.9 74 52.45 74 34 74 31.01 73.27 31.83 68.76 32.59 66.59 35.18 65.41 38.29 66.26 41.12 66 58.75 66 76.37 66 94 66c3.03 0.34 1.7 3.97 2 6zM72 96c-0.6 3.12-4.38 1.67-6.64 2-10.45 0-20.9 0-31.36 0C31.01 97.27 31.83 92.76 32.59 90.59 35.18 89.41 38.29 90.26 41.12 90 50.75 90 60.37 90 70 90c3.03 0.34 1.7 3.97 2 6zM28 21.19C16.82 20.85 7.07 31.32 8 42.43 8.02 64.63 7.97 86.83 8.03 109.03 8.27 119.97 18.72 129 29.55 128c23.83-0.02 47.66 0.03 71.48-0.03 10.94-0.24 19.97-10.69 18.97-21.52-0.02-22.1 0.03-44.2-0.03-66.29-0.24-10.94-10.69-19.97-21.52-18.97-8.06 0-16.12 0-24.18 0 0.76 7.7-8.61 13.57-15.21 9.55-4.9-1.03-3.91-8.42-6.57-9.55-8.16 0-16.33 0-24.49 0z" opacity="0.5"/>
  </svg>
 
