<svg xmlns="http://www.w3.org/2000/svg" viewBox="0 0 128 128" class="svg-inline--fa fa-backspace fa-w-20 fa-2x" width="128" height="128"><path d="m52 83.99c-17.68 0-32-14.3-32-32 0-17.67 14.3-32 32-32 17.68 0 32 14.3 32 32 0 17.67-14.3 32-32 32zM126.26 110.66 101.33 85.74c-1.13-1.12-2.65-1.75-4.25-1.75H93.01C99.91 75.17 104.01 64.07 104.01 51.99 104.01 23.27 80.73 0 52 0 23.28 0 0 23.27 0 51.99c0 28.72 23.28 51.99 52 51.99 12.08 0 23.18-4.1 32-11v4.07c0 1.6 0.63 3.12 1.75 4.25l24.93 24.92c2.35 2.35 6.15 2.35 8.48 0l7.08-7.07c2.35-2.35 2.35-6.15 0.03-8.5z" fill="currentColor"/></svg>
