<?xml version="1.0" encoding="UTF-8" standalone="no"?>
<svg
   xmlns:dc="http://purl.org/dc/elements/1.1/"
   xmlns:cc="http://creativecommons.org/ns#"
   xmlns:rdf="http://www.w3.org/1999/02/22-rdf-syntax-ns#"
   xmlns:svg="http://www.w3.org/2000/svg"
   xmlns="http://www.w3.org/2000/svg"
   xmlns:sodipodi="http://sodipodi.sourceforge.net/DTD/sodipodi-0.dtd"
   xmlns:inkscape="http://www.inkscape.org/namespaces/inkscape"
   aria-hidden="true"
   focusable="false"
   data-prefix="fas"
   data-icon="backspace"
   role="img"
   viewBox="0 0 128 128"
   class="svg-inline--fa fa-backspace fa-w-20 fa-2x"
   version="1.1"
   id="svg4"
   sodipodi:docname="search.svg"
   width="128"
   height="128"
   inkscape:version="0.92.4 5da689c313, 2019-01-14">
  <metadata
     id="metadata10">
    <rdf:RDF>
      <cc:Work
         rdf:about="">
        <dc:format>image/svg+xml</dc:format>
        <dc:type
           rdf:resource="http://purl.org/dc/dcmitype/StillImage" />
        <dc:title></dc:title>
      </cc:Work>
    </rdf:RDF>
  </metadata>
  <defs
     id="defs8" />
  <sodipodi:namedview
     pagecolor="#ffffff"
     bordercolor="#666666"
     borderopacity="1"
     objecttolerance="10"
     gridtolerance="10"
     guidetolerance="10"
     inkscape:pageopacity="0"
     inkscape:pageshadow="2"
     inkscape:window-width="2560"
     inkscape:window-height="1015"
     id="namedview6"
     showgrid="true"
     showguides="true"
     inkscape:guide-bbox="true"
     inkscape:snap-bbox="true"
     inkscape:bbox-paths="true"
     inkscape:bbox-nodes="true"
     inkscape:snap-bbox-edge-midpoints="true"
     inkscape:object-paths="true"
     inkscape:snap-intersection-paths="true"
     inkscape:snap-smooth-nodes="true"
     inkscape:snap-midpoints="true"
     inkscape:snap-bbox-midpoints="true"
     inkscape:zoom="3.6875"
     inkscape:cx="80.575402"
     inkscape:cy="63.432624"
     inkscape:window-x="0"
     inkscape:window-y="0"
     inkscape:window-maximized="1"
     inkscape:current-layer="svg4">
    <inkscape:grid
       type="xygrid"
       id="grid817"
       spacingx="8"
       spacingy="8" />
  </sodipodi:namedview>
  <path
     id="path812"
     style="fill:currentColor;stroke-width:1"
     d="m 52.003807,83.991794 c -17.676297,0 -32.002337,-14.298603 -32.002337,-31.996872 0,-17.673273 14.30104,-31.996871 32.002337,-31.996871 17.676293,0 32.002341,14.298592 32.002341,31.996871 0,17.673273 -14.301046,31.996872 -32.002341,31.996872 z M 126.25924,110.66419 101.33241,85.741633 c -1.12508,-1.124887 -2.650188,-1.749839 -4.250305,-1.749839 H 93.006806 C 99.907311,75.16766 104.00761,64.068737 104.00761,51.994922 104.00761,23.272728 80.730908,-2.5006095e-6 52.003807,-2.5006095e-6 23.27671,-2.5006095e-6 0,23.272728 0,51.994922 c 0,28.722195 23.27671,51.994928 52.003807,51.994928 12.075883,0 23.176695,-4.099608 32.002341,-10.998933 v 4.07461 c 0,1.599835 0.625046,3.124693 1.750128,4.249583 l 24.926824,24.92256 c 2.35017,2.34977 6.15045,2.34977 8.47562,0 l 7.07552,-7.07431 c 2.35017,-2.34977 2.35017,-6.14941 0.025,-8.49917 z" />
</svg>
