<?xml version="1.0" encoding="UTF-8" standalone="no"?>
<svg
   xmlns:dc="http://purl.org/dc/elements/1.1/"
   xmlns:cc="http://creativecommons.org/ns#"
   xmlns:rdf="http://www.w3.org/1999/02/22-rdf-syntax-ns#"
   xmlns:svg="http://www.w3.org/2000/svg"
   xmlns="http://www.w3.org/2000/svg"
   xmlns:sodipodi="http://sodipodi.sourceforge.net/DTD/sodipodi-0.dtd"
   xmlns:inkscape="http://www.inkscape.org/namespaces/inkscape"
   aria-hidden="true"
   focusable="false"
   data-prefix="fas"
   data-icon="backspace"
   role="img"
   viewBox="0 0 128 128"
   class="svg-inline--fa fa-backspace fa-w-20 fa-2x"
   version="1.1"
   id="svg4"
   sodipodi:docname="tags.svg"
   width="128"
   height="128"
   inkscape:version="0.92.4 5da689c313, 2019-01-14">
  <metadata
     id="metadata10">
    <rdf:RDF>
      <cc:Work
         rdf:about="">
        <dc:format>image/svg+xml</dc:format>
        <dc:type
           rdf:resource="http://purl.org/dc/dcmitype/StillImage" />
        <dc:title></dc:title>
      </cc:Work>
    </rdf:RDF>
  </metadata>
  <defs
     id="defs8" />
  <sodipodi:namedview
     pagecolor="#ffffff"
     bordercolor="#666666"
     borderopacity="1"
     objecttolerance="10"
     gridtolerance="10"
     guidetolerance="10"
     inkscape:pageopacity="0"
     inkscape:pageshadow="2"
     inkscape:window-width="2560"
     inkscape:window-height="1015"
     id="namedview6"
     showgrid="true"
     showguides="true"
     inkscape:guide-bbox="true"
     inkscape:snap-bbox="true"
     inkscape:bbox-paths="true"
     inkscape:bbox-nodes="true"
     inkscape:snap-bbox-edge-midpoints="true"
     inkscape:object-paths="true"
     inkscape:snap-intersection-paths="true"
     inkscape:snap-smooth-nodes="true"
     inkscape:snap-midpoints="true"
     inkscape:snap-bbox-midpoints="true"
     inkscape:zoom="3.6875"
     inkscape:cx="161.58797"
     inkscape:cy="30.75728"
     inkscape:window-x="0"
     inkscape:window-y="0"
     inkscape:window-maximized="1"
     inkscape:current-layer="svg4">
    <inkscape:grid
       type="xygrid"
       id="grid817"
       spacingx="8"
       spacingy="8" />
  </sodipodi:namedview>
  <path
     id="path831"
     style="fill:currentColor;stroke-width:1"
     d="M 125.18751,74.763769 84.36367,115.58762 c -3.74798,3.74998 -9.82796,3.74998 -13.57595,0 l -0.072,-0.072 34.81187,-34.811871 c 3.39999,-3.39999 5.27198,-7.91997 5.27198,-12.72795 0,-4.80798 -1.87199,-9.32796 -5.27198,-12.72795 L 66.27974,16 h 9.74396 a 9.5999626,9.5999626 0 0 1 6.78798,2.81199 l 42.37583,42.375839 c 3.74999,3.749979 3.74999,9.82796 0,13.57594 z M 22.39991,47.99988 c -5.30198,0 -9.59996,-4.29798 -9.59996,-9.59996 0,-5.30198 4.29798,-9.59997 9.59996,-9.59997 5.30198,0 9.59997,4.29799 9.59997,9.59997 0,5.30198 -4.29799,9.59996 -9.59997,9.59996 z M 99.58761,61.18783 57.21178,18.81199 A 9.5999626,9.5999626 0 0 0 50.4238,16 H 9.59996 C 4.29798,16 0,20.29799 0,25.59997 v 40.82384 a 9.5999626,9.5999626 0 0 0 2.81199,6.78797 l 42.37583,42.37584 c 3.74799,3.74998 9.82797,3.74998 13.57595,0 L 99.58761,74.763768 c 3.74999,-3.747979 3.74999,-9.82796 0,-13.575938 z" />
</svg>
