<svg xmlns="http://www.w3.org/2000/svg" viewBox="0 0 128 128"><path d="m76.98 55.97h-50.02c-1.65 0-3-1.35-3-3v-2c0-1.65 1.35-3 3-3h50.02c1.65 0 3 1.35 3 3v2c0 1.65-1.35 3-3 3z" fill="currentColor"/><path d="m96.03 52.02c0-24.33-19.68-44.01-44.01-44.01-24.33 0-44.01 19.68-44.01 44.01 0 24.33 19.68 44.01 44.01 44.01 24.33 0 44.01-19.68 44.01-44.01zm31.08 72.27-2.83 2.83c-1.18 1.18-3.08 1.18-4.25 0L87.78 94.86c-0.58-0.58-0.88-1.33-0.88-2.13v-2.13c-9.23 8.35-21.46 13.43-34.89 13.43-28.56 0-51.64-22.78-52.02-51.34-0.38-29.26 23.43-53.07 52.69-52.69 28.56 0.38 51.34 23.46 51.34 52.02 0 13.43-5.08 25.66-13.43 34.89h2.13c0.8 0 1.55 0.33 2.13 0.88l32.26 32.26c1.18 1.18 1.18 3.08 0 4.25z" fill="currentColor"/></svg>
