<svg xmlns="http://www.w3.org/2000/svg" viewBox="0 0 128 128" ><path d="m79.98 51.02v2c0 1.65-1.35 3-3 3H55.97v21.01c0 1.65-1.35 3-3 3h-2c-1.65 0-3-1.35-3-3V56.02H26.96c-1.65 0-3-1.35-3-3v-2c0-1.65 1.35-3 3-3H47.97V27.01c0-1.65 1.35-3 3-3h2c1.65 0 3 1.35 3 3V48.02H76.98c1.65 0 3 1.35 3 3z" fill="currentColor"/><path d="m96.03 52.02c0-24.33-19.68-44.01-44.01-44.01-24.33 0-44.01 19.68-44.01 44.01 0 24.33 19.68 44.01 44.01 44.01 24.33 0 44.01-19.68 44.01-44.01zm31.08 72.27-2.83 2.83c-1.18 1.18-3.08 1.18-4.25 0L87.78 94.86C87.21 94.28 86.91 93.53 86.91 92.73V90.61C77.68 98.96 65.45 104.04 52.02 104.04 23.46 104.04 0.38 81.25 0 52.7-0.37 23.44 23.44-0.37 52.7 0c28.56 0.38 51.34 23.46 51.34 52.02 0 13.43-5.08 25.66-13.43 34.89h2.13c0.8 0 1.55 0.33 2.13 0.88l32.26 32.26c1.18 1.18 1.18 3.08 0 4.25z" fill="currentColor"/></svg>
